<svg width="1200" height="630" viewBox="0 0 1200 630" fill="none" xmlns="http://www.w3.org/2000/svg">
  <!-- Navy background -->
  <rect width="1200" height="630" fill="#1c1e4d"/>

  <!-- Gold accent line at top -->
  <rect y="0" width="1200" height="8" fill="#aa935d"/>

  <!-- Gold circle with airplane icon -->
  <circle cx="600" cy="220" r="70" fill="#aa935d"/>
  <path d="M600 165c-2.76 0-5 2.24-5 5v18.33l-26.67 16.67v6.67l26.67-8.33v16.67l-6.67 5v5l11.67-3.33 11.67 3.33v-5l-6.67-5v-16.67l26.67 8.33v-6.67L605 188.33V170c0-2.76-2.24-5-5-5z" fill="white" transform="translate(0, 10) scale(1.3)"/>

  <!-- Fayette Flyer text -->
  <text x="600" y="340" font-family="Georgia, serif" font-size="72" font-weight="bold" fill="white" text-anchor="middle">Fayette Flyer</text>

  <!-- Tagline -->
  <text x="600" y="400" font-family="Georgia, serif" font-size="32" font-style="italic" fill="#d1d5db" text-anchor="middle">Local News with Character</text>

  <!-- Location text -->
  <text x="600" y="480" font-family="Arial, sans-serif" font-size="28" fill="#aa935d" text-anchor="middle">Fayette County, Georgia</text>

  <!-- City names -->
  <text x="600" y="530" font-family="Arial, sans-serif" font-size="20" fill="#9ca3af" text-anchor="middle">Peachtree City  路  Fayetteville  路  Tyrone  路  Brooks  路  Woolsey</text>

  <!-- Gold accent line at bottom -->
  <rect y="622" width="1200" height="8" fill="#aa935d"/>
</svg>
